<svg width="33" height="53" viewBox="0 0 33 53" fill="none" xmlns="http://www.w3.org/2000/svg">
<rect x="6" y="1" width="20" height="26" rx="3" stroke="#C03746" stroke-width="2"/>
<circle cx="16" cy="10" r="3" fill="#C03746"/>
<path d="M25.9999 21.5C25.9999 24.5376 26.0497 27 15.9999 27C5.5 27 5.99987 24.5376 5.99987 21.5C5.99987 18.4624 10.477 16 15.9999 16C21.5227 16 25.9999 18.4624 25.9999 21.5Z" fill="#C03746"/>
<path d="M14 32.5H7V33.5H14V36L17 33L14 30V32.5Z" fill="#C03746" stroke="#C03746" stroke-linejoin="round"/>
<path d="M20 33H26" stroke="#C03746" stroke-width="2" stroke-linejoin="round"/>
<path d="M0.958807 50V41.2727H6.37074V42.4062H2.27557V45.0653H5.98295V46.1946H2.27557V50H0.958807ZM15.571 45.6364C15.571 46.5682 15.4006 47.3693 15.0597 48.0398C14.7188 48.7074 14.2514 49.2216 13.6577 49.5824C13.0668 49.9403 12.3949 50.1193 11.642 50.1193C10.8864 50.1193 10.2116 49.9403 9.6179 49.5824C9.02699 49.2216 8.56108 48.706 8.22017 48.0355C7.87926 47.3651 7.70881 46.5653 7.70881 45.6364C7.70881 44.7045 7.87926 43.9048 8.22017 43.2372C8.56108 42.5668 9.02699 42.0526 9.6179 41.6946C10.2116 41.3338 10.8864 41.1534 11.642 41.1534C12.3949 41.1534 13.0668 41.3338 13.6577 41.6946C14.2514 42.0526 14.7188 42.5668 15.0597 43.2372C15.4006 43.9048 15.571 44.7045 15.571 45.6364ZM14.267 45.6364C14.267 44.9261 14.152 44.3281 13.9219 43.8423C13.6946 43.3537 13.3821 42.9844 12.9844 42.7344C12.5895 42.4815 12.142 42.3551 11.642 42.3551C11.1392 42.3551 10.6903 42.4815 10.2955 42.7344C9.90057 42.9844 9.58807 43.3537 9.35795 43.8423C9.13068 44.3281 9.01705 44.9261 9.01705 45.6364C9.01705 46.3466 9.13068 46.946 9.35795 47.4347C9.58807 47.9205 9.90057 48.2898 10.2955 48.5426C10.6903 48.7926 11.1392 48.9176 11.642 48.9176C12.142 48.9176 12.5895 48.7926 12.9844 48.5426C13.3821 48.2898 13.6946 47.9205 13.9219 47.4347C14.152 46.946 14.267 46.3466 14.267 45.6364ZM16.4073 42.4062V41.2727H23.1616V42.4062H20.4386V50H19.1261V42.4062H16.4073ZM31.8601 45.6364C31.8601 46.5682 31.6896 47.3693 31.3487 48.0398C31.0078 48.7074 30.5405 49.2216 29.9467 49.5824C29.3558 49.9403 28.6839 50.1193 27.9311 50.1193C27.1754 50.1193 26.5007 49.9403 25.907 49.5824C25.3161 49.2216 24.8501 48.706 24.5092 48.0355C24.1683 47.3651 23.9979 46.5653 23.9979 45.6364C23.9979 44.7045 24.1683 43.9048 24.5092 43.2372C24.8501 42.5668 25.3161 42.0526 25.907 41.6946C26.5007 41.3338 27.1754 41.1534 27.9311 41.1534C28.6839 41.1534 29.3558 41.3338 29.9467 41.6946C30.5405 42.0526 31.0078 42.5668 31.3487 43.2372C31.6896 43.9048 31.8601 44.7045 31.8601 45.6364ZM30.5561 45.6364C30.5561 44.9261 30.4411 44.3281 30.2109 43.8423C29.9837 43.3537 29.6712 42.9844 29.2734 42.7344C28.8786 42.4815 28.4311 42.3551 27.9311 42.3551C27.4283 42.3551 26.9794 42.4815 26.5845 42.7344C26.1896 42.9844 25.8771 43.3537 25.647 43.8423C25.4197 44.3281 25.3061 44.9261 25.3061 45.6364C25.3061 46.3466 25.4197 46.946 25.647 47.4347C25.8771 47.9205 26.1896 48.2898 26.5845 48.5426C26.9794 48.7926 27.4283 48.9176 27.9311 48.9176C28.4311 48.9176 28.8786 48.7926 29.2734 48.5426C29.6712 48.2898 29.9837 47.9205 30.2109 47.4347C30.4411 46.946 30.5561 46.3466 30.5561 45.6364Z" fill="#C03746"/>
</svg>
