<svg xmlns="http://www.w3.org/2000/svg" width="15.214" height="16.525" viewBox="0 0 15.214 16.525"><defs><style>.a{fill:#272e47;}</style></defs><g transform="translate(-445.518 -223.82)"><path class="a" d="M0,.949A.93.93,0,0,1,.951,0H13.5s.761,0,.761.949a.744.744,0,0,1-.761.759H.951S0,1.708,0,.949Z" transform="translate(446.472 238.637)"/><path class="a" d="M12.755,6.359A6.369,6.369,0,0,0,.017,6.354C-.553,6.828,13.325,6.834,12.755,6.359Z" transform="matrix(0.978, -0.208, 0.208, 0.978, 445.518, 231.711)"/><ellipse class="a" cx="0.951" cy="0.949" rx="0.951" ry="0.949" transform="matrix(0.978, -0.208, 0.208, 0.978, 450.423, 229.116)"/><path class="a" d="M0,.569S0,0,.38,0H.95s.38,0,.38.569V2.847s0,.569-.38.569H.381S0,3.415,0,2.846Z" transform="matrix(0.978, -0.208, 0.208, 0.978, 448.557, 224.283)"/><path class="a" d="M0,.57S0,0,.382,0h.57s.38,0,.38.569V2.846s0,.569-.38.569H.38S0,3.416,0,2.847Z" transform="translate(452.361 223.82) rotate(13)"/><path class="a" d="M0,.571S0,0,.383,0h.57s.38,0,.379.569l0,2.279s0,.57-.381.57H.379S0,3.419,0,2.849Z" transform="matrix(0.788, 0.616, -0.616, 0.788, 455.599, 225.528)"/></g></svg>