<svg width="544" height="143" viewBox="0 0 544 143" fill="none" xmlns="http://www.w3.org/2000/svg">
<path opacity="0.5" d="M505.767 0H37.2586C16.6813 0 0 16.6624 0 37.2166V105.783C0 126.338 16.6813 143 37.2586 143H505.767C526.345 143 543.026 126.338 543.026 105.783V37.2166C543.026 16.6624 526.345 0 505.767 0Z" fill="#2E3334"/>
<g opacity="0.5">
<path d="M138.659 69.071C138.677 68.639 138.945 68.487 139.467 68.129C142.808 65.829 144.867 61.144 144.867 56.973C144.867 45.96 135.4 43.034 123.698 43.034H105.098C104.896 43.0341 104.696 43.074 104.509 43.1514C104.323 43.2289 104.153 43.3423 104.011 43.4852C103.868 43.6281 103.755 43.7977 103.678 43.9843C103.601 44.171 103.561 44.371 103.561 44.573V97.43C103.561 97.6319 103.601 97.8318 103.678 98.0183C103.755 98.2049 103.868 98.3744 104.011 98.5171C104.154 98.6599 104.323 98.7731 104.51 98.8503C104.696 98.9275 104.896 98.9671 105.098 98.967H125.417C137.465 98.967 147.447 93.975 147.447 82.445C147.447 75.845 144.027 71.845 139.503 69.962C138.956 69.731 138.64 69.483 138.659 69.071ZM118.359 55.931C118.359 55.7289 118.399 55.5288 118.476 55.342C118.553 55.1553 118.667 54.9857 118.81 54.8428C118.952 54.7 119.122 54.5867 119.309 54.5095C119.496 54.4323 119.696 54.3927 119.898 54.393H123.351C128.171 54.393 130.408 55.768 130.408 59.211C130.408 62.654 128.171 64.888 123.351 64.888H119.898C119.49 64.888 119.099 64.7261 118.811 64.4378C118.523 64.1496 118.361 63.7586 118.361 63.351L118.359 55.931ZM124.382 87.608H119.898C119.49 87.6077 119.1 87.4457 118.811 87.1575C118.523 86.8693 118.361 86.4785 118.361 86.071V77.271C118.361 76.8634 118.523 76.4724 118.811 76.1842C119.099 75.8959 119.49 75.734 119.898 75.734H124.383C130.234 75.734 132.989 77.282 132.989 81.411C132.989 85.54 130.238 87.608 124.387 87.608H124.382Z" fill="white"/>
<path d="M165.873 44.124L149.773 96.981C149.703 97.211 149.688 97.4541 149.729 97.6909C149.77 97.9278 149.866 98.1517 150.009 98.3448C150.152 98.5379 150.338 98.6948 150.553 98.8029C150.768 98.9109 151.005 98.9671 151.245 98.967H163.094C163.441 98.9676 163.779 98.8506 164.051 98.6351C164.323 98.4196 164.515 98.1182 164.594 97.78L166.819 88.28C166.898 87.942 167.09 87.6409 167.362 87.4256C167.635 87.2102 167.972 87.0934 168.319 87.094H181.486C181.833 87.0934 182.17 87.2102 182.443 87.4256C182.715 87.6409 182.907 87.942 182.986 88.28L185.211 97.78C185.29 98.1182 185.482 98.4196 185.754 98.6351C186.026 98.8506 186.364 98.9676 186.711 98.967H199.077C199.317 98.967 199.554 98.9107 199.769 98.8026C199.983 98.6945 200.17 98.5375 200.312 98.3444C200.455 98.1513 200.551 97.9274 200.592 97.6906C200.633 97.4538 200.617 97.2108 200.547 96.981L184.447 44.124C184.351 43.8087 184.157 43.5324 183.892 43.336C183.627 43.1396 183.307 43.0334 182.977 43.033H167.343C167.013 43.0334 166.693 43.1396 166.428 43.336C166.163 43.5324 165.969 43.8087 165.873 44.124V44.124ZM171.713 75.647C171.481 75.6473 171.252 75.595 171.043 75.4942C170.834 75.3933 170.65 75.2465 170.506 75.0648C170.362 74.883 170.26 74.6709 170.21 74.4444C170.159 74.218 170.16 73.983 170.213 73.757L170.678 71.775C171.396 68.991 172.492 64.103 173.378 60.064C173.454 59.7236 173.644 59.4192 173.916 59.2009C174.188 58.9825 174.526 58.8631 174.875 58.8623C175.224 58.8615 175.563 58.9793 175.836 59.1964C176.109 59.4135 176.3 59.717 176.378 60.057C177.299 64.139 178.235 68.388 179.109 71.775L179.574 73.757C179.627 73.983 179.628 74.218 179.577 74.4444C179.527 74.6709 179.425 74.883 179.281 75.0648C179.137 75.2465 178.953 75.3933 178.744 75.4942C178.535 75.595 178.306 75.6473 178.074 75.647H171.713Z" fill="white"/>
<path d="M230.397 87.264C223.168 87.264 218.35 81.411 218.35 70.914C218.35 60.76 224.029 54.737 230.568 54.737C233.57 54.79 236.455 55.911 238.705 57.899C239.02 58.1491 239.421 58.2652 239.821 58.2221C240.221 58.1791 240.588 57.9804 240.843 57.669L246.699 50.51C246.952 50.197 247.073 49.7981 247.037 49.3975C247.001 48.9968 246.81 48.6259 246.506 48.363C242.046 44.3125 236.25 42.0472 230.226 42C216.113 42 203.204 52.671 203.204 71.431C203.204 90.531 215.595 100.001 229.88 100.001C233.141 100.065 236.38 99.4532 239.393 98.2037C242.406 96.9542 245.127 95.0942 247.386 92.741C247.64 92.465 247.785 92.1057 247.794 91.7305C247.802 91.3553 247.673 90.9899 247.431 90.703L241.612 83.72C241.48 83.5617 241.318 83.4317 241.134 83.3378C240.951 83.2438 240.751 83.1879 240.545 83.1733C240.34 83.1587 240.133 83.1858 239.939 83.253C239.744 83.3201 239.565 83.4259 239.412 83.564C236.976 85.8818 233.759 87.202 230.397 87.264Z" fill="white"/>
<path d="M78.195 87.264C70.966 87.264 66.147 81.411 66.147 70.914C66.147 60.76 71.826 54.737 78.366 54.737C81.3674 54.79 84.2516 55.9111 86.501 57.899C86.8162 58.1491 87.2171 58.2652 87.6171 58.2221C88.0172 58.1791 88.3842 57.9804 88.639 57.669L94.495 50.51C94.7477 50.197 94.8688 49.7981 94.8328 49.3975C94.7968 48.9968 94.6065 48.6259 94.302 48.363C89.8423 44.3125 84.0464 42.0472 78.022 42C63.909 42 51 52.671 51 71.431C51 90.531 63.391 100.001 77.676 100.001C80.9371 100.065 84.1762 99.4533 87.1891 98.2038C90.202 96.9543 92.9235 95.0943 95.182 92.741C95.4364 92.465 95.5813 92.1057 95.5896 91.7305C95.5979 91.3553 95.469 90.9899 95.227 90.703L89.409 83.72C89.2772 83.5617 89.1147 83.4317 88.9314 83.3378C88.7481 83.2438 88.5477 83.1879 88.3422 83.1733C88.1368 83.1587 87.9305 83.1858 87.7357 83.253C87.541 83.3201 87.3618 83.4259 87.209 83.564C84.773 85.8816 81.5567 87.2018 78.195 87.264Z" fill="white"/>
<path d="M269.987 43.034H256.886C256.417 43.034 256.036 43.4146 256.036 43.884V98.117C256.036 98.5864 256.417 98.967 256.886 98.967H269.987C270.456 98.967 270.837 98.5864 270.837 98.117V43.884C270.837 43.4146 270.456 43.034 269.987 43.034Z" fill="white"/>
<path d="M291.539 83.709L300.067 96.909C300.197 97.1101 300.27 97.3425 300.279 97.5817C300.288 97.821 300.233 98.0582 300.118 98.2685C300.004 98.4789 299.835 98.6544 299.629 98.7768C299.423 98.8992 299.188 98.9639 298.949 98.964H288.164C287.678 98.9636 287.199 98.8417 286.772 98.6092C286.345 98.3767 285.983 98.0411 285.719 97.633L275.909 82.451L275.023 81.094L269.317 72.273C269.072 71.8939 268.941 71.452 268.941 71.0005C268.941 70.549 269.072 70.1071 269.317 69.728L275.168 60.692L275.91 59.553L285.72 44.371C285.984 43.9626 286.346 43.6268 286.773 43.3943C287.2 43.1618 287.679 43.04 288.165 43.04H298.946C299.185 43.04 299.42 43.1046 299.626 43.2269C299.831 43.3492 300 43.5246 300.114 43.7348C300.228 43.9449 300.284 44.182 300.275 44.4211C300.266 44.6601 300.192 44.8922 300.062 45.093L288.695 62.662C288.603 62.804 288.548 62.9672 288.536 63.1362C288.524 63.3052 288.555 63.4744 288.627 63.6281C288.698 63.7817 288.807 63.9147 288.944 64.0146C289.081 64.1144 289.241 64.1779 289.409 64.199C294.075 64.7152 298.786 64.6551 303.437 64.02C315.812 62.3431 327.28 56.6021 336.037 47.699C336.155 47.5773 336.312 47.501 336.48 47.4834C336.649 47.4657 336.818 47.5079 336.959 47.6026C337.099 47.6972 337.202 47.8383 337.249 48.0011C337.296 48.1638 337.284 48.338 337.216 48.493C334.153 55.349 329.76 61.5288 324.291 66.6742C318.822 71.8197 312.386 75.8284 305.356 78.468C301.145 79.7556 296.853 80.7635 292.509 81.485C292.273 81.5272 292.05 81.6271 291.862 81.7758C291.674 81.9245 291.525 82.1174 291.429 82.3374C291.333 82.5574 291.293 82.7977 291.312 83.037C291.331 83.2763 291.409 83.5071 291.539 83.709Z" fill="#FA990E"/>
<path d="M355.54 43.8228L339.333 97.0176C339.263 97.249 339.247 97.4936 339.289 97.7319C339.33 97.9702 339.426 98.1956 339.57 98.3899C339.714 98.5842 339.902 98.7422 340.118 98.851C340.334 98.9598 340.572 99.0164 340.814 99.0163H352.739C353.089 99.0166 353.429 98.8985 353.702 98.6811C353.976 98.4637 354.169 98.16 354.248 97.8194L356.475 88.2604C356.554 87.9198 356.746 87.616 357.02 87.3987C357.294 87.1813 357.634 87.0632 357.984 87.0635H371.234C371.583 87.0632 371.923 87.1813 372.197 87.3987C372.471 87.616 372.663 87.9198 372.742 88.2604L374.969 97.8194C375.048 98.16 375.241 98.4637 375.515 98.6811C375.789 98.8985 376.128 99.0166 376.478 99.0163H388.921C389.162 99.0164 389.401 98.9598 389.617 98.851C389.833 98.7422 390.021 98.5842 390.165 98.3899C390.309 98.1956 390.405 97.9702 390.446 97.7319C390.487 97.4936 390.472 97.249 390.402 97.0176L374.195 43.8228C374.102 43.5023 373.907 43.2207 373.64 43.02C373.373 42.8194 373.048 42.7103 372.714 42.7093H357.02C356.686 42.7103 356.362 42.8194 356.095 43.02C355.828 43.2207 355.633 43.5023 355.54 43.8228V43.8228ZM361.419 75.5559C361.185 75.5561 360.955 75.5037 360.745 75.4025C360.535 75.3012 360.351 75.1538 360.206 74.9713C360.06 74.7887 359.959 74.5757 359.907 74.3483C359.856 74.1208 359.857 73.8846 359.91 73.6575L360.377 71.6589C361.101 68.8753 362.204 63.9372 363.094 59.8731C363.172 59.5314 363.364 59.2264 363.638 59.008C363.912 58.7895 364.252 58.6706 364.603 58.6706C364.953 58.6706 365.294 58.7895 365.568 59.008C365.842 59.2264 366.034 59.5314 366.112 59.8731C367.036 63.9817 367.982 68.2574 368.862 71.6646L369.33 73.6631C369.382 73.8902 369.383 74.1264 369.332 74.3539C369.281 74.5813 369.179 74.7942 369.034 74.9767C368.889 75.1593 368.704 75.3067 368.494 75.4079C368.284 75.5092 368.054 75.5617 367.821 75.5615L361.419 75.5559Z" fill="white"/>
<path d="M418.36 42.8428H399.365C398.954 42.8428 398.561 43.006 398.27 43.2963C397.98 43.5865 397.817 43.9801 397.817 44.3906V97.4073C397.817 97.8178 397.98 98.2114 398.27 98.5017C398.561 98.7919 398.954 98.9549 399.365 98.9549H411.117C411.32 98.9549 411.522 98.915 411.709 98.8372C411.897 98.7594 412.068 98.6454 412.212 98.5017C412.355 98.3579 412.469 98.1874 412.547 97.9996C412.625 97.8118 412.665 97.6106 412.665 97.4073V82.721C412.665 82.5178 412.705 82.3165 412.783 82.1287C412.861 81.941 412.974 81.7702 413.118 81.6265C413.262 81.4828 413.433 81.3687 413.62 81.291C413.808 81.2132 414.009 81.1732 414.213 81.1732H418.705C430.447 81.1732 441.152 75.2163 441.152 61.4931C441.152 47.3356 430.619 42.8428 418.36 42.8428ZM418.015 69.4319H414.213C414.009 69.4319 413.808 69.3919 413.62 69.3142C413.433 69.2364 413.262 69.1223 413.118 68.9786C412.974 68.8349 412.861 68.6643 412.783 68.4766C412.705 68.2888 412.665 68.0875 412.665 67.8843V56.1319C412.665 55.9287 412.705 55.7274 412.783 55.5396C412.861 55.3519 412.974 55.1811 413.118 55.0374C413.262 54.8937 413.433 54.7798 413.62 54.702C413.808 54.6243 414.009 54.5841 414.213 54.5841H417.67C423.365 54.5841 426.65 56.4825 426.65 61.4874C426.65 66.4924 423.888 69.4319 418.015 69.4319V69.4319Z" fill="white"/>
<path d="M469.016 42.8428H450.021C449.611 42.8428 449.217 43.006 448.927 43.2963C448.636 43.5865 448.473 43.9801 448.473 44.3906V97.4073C448.473 97.8178 448.636 98.2114 448.927 98.5017C449.217 98.7919 449.611 98.9549 450.021 98.9549H461.773C462.184 98.9549 462.578 98.7919 462.868 98.5017C463.158 98.2114 463.321 97.8178 463.321 97.4073V82.721C463.321 82.5178 463.361 82.3165 463.439 82.1287C463.517 81.941 463.631 81.7702 463.774 81.6265C463.918 81.4828 464.089 81.3687 464.277 81.291C464.464 81.2132 464.666 81.1732 464.869 81.1732H469.362C481.103 81.1732 491.809 75.2163 491.809 61.4931C491.809 47.3356 481.275 42.8428 469.016 42.8428ZM468.671 69.4319H464.869C464.666 69.4319 464.464 69.3919 464.277 69.3142C464.089 69.2364 463.918 69.1223 463.774 68.9786C463.631 68.8349 463.517 68.6643 463.439 68.4766C463.361 68.2888 463.321 68.0875 463.321 67.8843V56.1319C463.321 55.9287 463.361 55.7274 463.439 55.5396C463.517 55.3519 463.631 55.1811 463.774 55.0374C463.918 54.8937 464.089 54.7798 464.277 54.702C464.464 54.6243 464.666 54.5841 464.869 54.5841H468.326C474.021 54.5841 477.306 56.4825 477.306 61.4874C477.306 66.4924 474.545 69.4319 468.671 69.4319V69.4319Z" fill="white"/>
<path d="M323.873 82.0361C322.082 81.965 320.311 82.4312 318.787 83.3749C317.263 84.3185 316.056 85.6965 315.321 87.3315C314.586 88.9665 314.357 90.7839 314.664 92.5501C314.97 94.3162 315.797 95.9504 317.04 97.2425C318.282 98.5346 319.883 99.4255 321.635 99.8008C323.388 100.176 325.213 100.019 326.876 99.3486C328.538 98.6785 329.963 97.5265 330.965 96.0406C331.968 94.5548 332.503 92.803 332.502 91.0105C332.549 89.8485 332.36 88.6892 331.947 87.6021C331.534 86.515 330.906 85.5225 330.1 84.6843C329.294 83.8461 328.327 83.1794 327.257 82.7243C326.187 82.2693 325.036 82.0352 323.873 82.0361V82.0361Z" fill="white"/>
</g>
</svg>