<svg xmlns="http://www.w3.org/2000/svg" width="116.596" height="30.739" viewBox="0 0 116.596 30.739"><defs><style>.a{opacity:0.5;}.b{fill:#d63f3f;}.c{fill:#fff;}.d{fill:#fa990e;}</style></defs><g class="a" transform="translate(-132.667 -223.297)"><rect class="b" width="116.596" height="30.739" rx="8" transform="translate(132.667 223.297)"/><g transform="translate(150.986 233.424)"><path class="c" d="M251.838,273.2c0-.078.052-.106.146-.171a2.552,2.552,0,0,0,.976-2.016c0-1.991-1.711-2.52-3.827-2.52h-3.362a.278.278,0,0,0-.278.278v9.555a.278.278,0,0,0,.278.278h3.673c2.178,0,3.982-.9,3.982-2.987a2.284,2.284,0,0,0-1.436-2.257C251.892,273.324,251.835,273.279,251.838,273.2Zm-3.669-2.375a.278.278,0,0,1,.278-.278h.624c.871,0,1.276.249,1.276.871s-.4,1.026-1.276,1.026h-.624a.278.278,0,0,1-.278-.278Zm1.089,5.726h-.811a.278.278,0,0,1-.278-.278v-1.591a.278.278,0,0,1,.278-.278h.811c1.058,0,1.556.28,1.556,1.027S250.316,276.556,249.258,276.556Z" transform="translate(-235.992 -268.311)"/><path class="c" d="M296.542,268.695l-2.91,9.555a.278.278,0,0,0,.266.359h2.142a.278.278,0,0,0,.271-.215l.4-1.717a.278.278,0,0,1,.271-.215h2.38a.278.278,0,0,1,.271.215l.4,1.717a.278.278,0,0,0,.271.215h2.235a.278.278,0,0,0,.266-.359l-2.91-9.555a.278.278,0,0,0-.266-.2h-2.824A.278.278,0,0,0,296.542,268.695Zm1.056,5.7a.278.278,0,0,1-.271-.341l.084-.359c.13-.5.328-1.387.488-2.117a.278.278,0,0,1,.543,0c.166.738.336,1.506.494,2.118l.084.359a.278.278,0,0,1-.271.341Z" transform="translate(-275.776 -268.311)"/><path class="c" d="M496.834,268.695l-2.911,9.555a.278.278,0,0,0,.266.359h2.142a.278.278,0,0,0,.271-.215l.4-1.717a.278.278,0,0,1,.271-.215h2.38a.278.278,0,0,1,.271.215l.4,1.717a.278.278,0,0,0,.271.215h2.235a.278.278,0,0,0,.266-.359l-2.911-9.555a.278.278,0,0,0-.266-.2H497.1A.278.278,0,0,0,496.834,268.695Zm1.056,5.7a.278.278,0,0,1-.271-.341l.084-.359c.13-.5.328-1.387.488-2.117a.278.278,0,0,1,.542,0c.166.738.336,1.506.494,2.118l.084.359a.278.278,0,0,1-.271.341Z" transform="translate(-441.354 -268.311)"/><path class="c" d="M354.335,275.6c-1.307,0-2.178-1.058-2.178-2.955,0-1.836,1.027-2.924,2.209-2.924a2.282,2.282,0,0,1,1.471.572.277.277,0,0,0,.387-.042l1.059-1.294a.281.281,0,0,0-.035-.388,4.429,4.429,0,0,0-2.943-1.15c-2.551,0-4.885,1.929-4.885,5.32,0,3.454,2.24,5.164,4.822,5.164a4.269,4.269,0,0,0,3.164-1.312.278.278,0,0,0,.008-.368l-1.052-1.262a.276.276,0,0,0-.4-.028A2.429,2.429,0,0,1,354.335,275.6Z" transform="translate(-321.905 -267.42)"/><path class="c" d="M195.584,275.6c-1.307,0-2.178-1.058-2.178-2.955,0-1.836,1.027-2.924,2.209-2.924a2.281,2.281,0,0,1,1.471.572.277.277,0,0,0,.387-.042l1.059-1.294a.281.281,0,0,0-.035-.388,4.429,4.429,0,0,0-2.943-1.15c-2.551,0-4.884,1.929-4.884,5.32,0,3.454,2.24,5.164,4.822,5.164a4.269,4.269,0,0,0,3.164-1.312.278.278,0,0,0,.008-.368l-1.052-1.262a.276.276,0,0,0-.4-.028A2.429,2.429,0,0,1,195.584,275.6Z" transform="translate(-190.668 -267.42)"/><rect class="c" width="2.676" height="10.111" rx="1.338" transform="translate(37.065 0.187)"/><path class="d" d="M422.067,275.853l1.541,2.386a.241.241,0,0,1-.2.371h-1.949a.526.526,0,0,1-.442-.241l-1.774-2.744-.16-.245-1.031-1.595a.423.423,0,0,1,0-.46l1.058-1.634.134-.206,1.774-2.744a.526.526,0,0,1,.442-.241h1.949a.241.241,0,0,1,.2.371l-2.055,3.176a.181.181,0,0,0,.129.278,10.324,10.324,0,0,0,2.536-.032,10.186,10.186,0,0,0,5.893-2.95.131.131,0,0,1,.213.144,10.258,10.258,0,0,1-5.759,5.419,18.11,18.11,0,0,1-2.322.545A.263.263,0,0,0,422.067,275.853Z" transform="translate(-378.585 -268.313)"/><path class="c" d="M558.278,268.619h-3.412a.278.278,0,0,0-.278.278v9.523a.278.278,0,0,0,.278.278h2.111a.278.278,0,0,0,.278-.278v-2.638a.278.278,0,0,1,.278-.278h.807c2.109,0,4.032-1.07,4.032-3.535C562.372,269.426,560.48,268.619,558.278,268.619Zm-.062,4.776h-.683a.278.278,0,0,1-.278-.278v-2.111a.278.278,0,0,1,.278-.278h.621c1.023,0,1.613.341,1.613,1.24S559.271,273.395,558.216,273.395Z" transform="translate(-491.514 -268.411)"/><path class="c" d="M610.778,268.619h-3.412a.278.278,0,0,0-.278.278v9.523a.278.278,0,0,0,.278.278h2.111a.278.278,0,0,0,.278-.278v-2.638a.278.278,0,0,1,.278-.278h.807c2.109,0,4.032-1.07,4.032-3.535C614.872,269.426,612.98,268.619,610.778,268.619Zm-.062,4.776h-.683a.278.278,0,0,1-.278-.278v-2.111a.278.278,0,0,1,.278-.278h.621c1.023,0,1.613.341,1.613,1.24S611.771,273.395,610.716,273.395Z" transform="translate(-534.915 -268.411)"/><path class="c" d="M470.557,309.237a1.614,1.614,0,1,0,1.55,1.612A1.55,1.55,0,0,0,470.557,309.237Z" transform="translate(-420.765 -301.989)"/></g><g transform="translate(231.307 233.446)"><path class="c" d="M657.128,268.495a1.524,1.524,0,0,0-.333-.5,1.553,1.553,0,0,0-1.11-.452h-.023a1.562,1.562,0,0,0-1.11.452,1.525,1.525,0,0,0-.333.5,1.56,1.56,0,0,0-.12.611v.023a1.562,1.562,0,0,0,.453,1.111,1.533,1.533,0,0,0,.5.335,1.559,1.559,0,0,0,.612.12h.023a1.555,1.555,0,0,0,.613-.12,1.534,1.534,0,0,0,.5-.335,1.562,1.562,0,0,0,.453-1.111v-.023A1.558,1.558,0,0,0,657.128,268.495Zm-.023.635a1.4,1.4,0,0,1-.19.72,1.425,1.425,0,0,1-.511.513,1.386,1.386,0,0,1-.718.19h-.023a1.4,1.4,0,0,1-.72-.19,1.42,1.42,0,0,1-.513-.513,1.4,1.4,0,0,1-.19-.72v-.023a1.386,1.386,0,0,1,.19-.718,1.425,1.425,0,0,1,.513-.511,1.4,1.4,0,0,1,.72-.19h.023a1.386,1.386,0,0,1,.718.19,1.43,1.43,0,0,1,.511.511,1.387,1.387,0,0,1,.19.718Z" transform="translate(-654.099 -267.547)"/><path class="c" d="M660.872,273.064a.491.491,0,0,0,.2-.14.477.477,0,0,0-.046-.646.583.583,0,0,0-.4-.129h-.508a.059.059,0,0,0-.059.059v1.432a.059.059,0,0,0,.059.059h.117a.059.059,0,0,0,.059-.059v-.532h.334l.342.563a.058.058,0,0,0,.05.029h.133a.06.06,0,0,0,.052-.03.061.061,0,0,0,0-.06Zm-.246-.179H660.3v-.509h.321a.374.374,0,0,1,.242.07.257.257,0,0,1,0,.371A.369.369,0,0,1,660.626,272.885Z" transform="translate(-659.029 -271.351)"/></g></g></svg>