<svg xmlns="http://www.w3.org/2000/svg" width="60.513" height="60.513" viewBox="0 0 60.513 60.513"><defs><style>.a{fill:#00357b;}.b{fill:#001737;}.c{fill:#ffec00;}.d{fill:#ffd92e;}.e{fill:#58b354;}.f{fill:#00a963;}</style></defs><path class="a" d="M118.328,346.412a1.773,1.773,0,0,1-1.773,1.773H69.631a3.569,3.569,0,0,1-3.536-3.123l-.5-4.021a3.567,3.567,0,0,1,3.523-4.007c9.227-.047,7.349-.039,7.61-.039a1.773,1.773,0,0,1,.009,3.546c-7.906.041-7.617.031-7.624.053.539,4.32.5,4.044.521,4.044h46.924a1.773,1.773,0,0,1,1.773,1.773" transform="translate(-57.815 -297.166)"/><path class="b" d="M328.583,403.443a1.774,1.774,0,0,1-1.773,1.773H304V401.67h22.811a1.773,1.773,0,0,1,1.773,1.773" transform="translate(-268.07 -354.197)"/><path class="a" d="M127.02,401.667a6.52,6.52,0,1,0,6.52,6.52,6.528,6.528,0,0,0-6.52-6.52" transform="translate(-106.258 -354.194)"/><path class="b" d="M368.02,401.667a6.52,6.52,0,1,0,6.52,6.52,6.528,6.528,0,0,0-6.52-6.52" transform="translate(-318.774 -354.194)"/><path class="a" d="M13.164,13.041a1.773,1.773,0,0,1-1.742-1.456L9.978,3.631c-.024-.132.375-.085-8.2-.085A1.773,1.773,0,0,1,1.773,0h8.1a3.647,3.647,0,0,1,3.59,3l1.444,7.953a1.773,1.773,0,0,1-1.746,2.09"/><path class="c" d="M141.176,80.4l-43-.074a1.773,1.773,0,0,0-1.755,2.047l4.748,30.383a1.773,1.773,0,0,0,1.751,1.5h36.9a5.467,5.467,0,0,0,5.576-5.6V84.634a4.236,4.236,0,0,0-4.222-4.23" transform="translate(-85.004 -70.836)"/><path class="d" d="M328.583,84.925v24.022a5.472,5.472,0,0,1-5.586,5.6H304V80.66c19.7.034-.387,0,20.355.035a4.239,4.239,0,0,1,4.229,4.23" transform="translate(-268.07 -71.127)"/><path class="e" d="M231.024,36.7l-7.01,7.015a4.8,4.8,0,0,1-6.79,0l-7.01-7.015a2.677,2.677,0,0,1,1.893-4.567h2.958V20.781A3.786,3.786,0,0,1,218.847,17h3.543a3.786,3.786,0,0,1,3.782,3.782V32.128h2.959a2.677,2.677,0,0,1,1.892,4.567" transform="translate(-184.676 -14.991)"/><path class="f" d="M314.408,36.7,307.4,43.71A4.769,4.769,0,0,1,304,45.116c-.022,0-.014,1.335-.014-28.116h1.785a3.786,3.786,0,0,1,3.782,3.782V32.128h2.959a2.677,2.677,0,0,1,1.892,4.567" transform="translate(-268.06 -14.991)"/></svg>