<svg width="46" height="46" viewBox="0 0 46 46" fill="none" xmlns="http://www.w3.org/2000/svg">
<path d="M23 46C35.7025 46 46 35.7025 46 23C46 10.2975 35.7025 0 23 0C10.2975 0 0 10.2975 0 23C0 35.7025 10.2975 46 23 46Z" fill="#FFCC78"/>
<path d="M23.0009 34.1541L21.4009 32.7151C15.7359 27.5151 12.0009 24.1381 12.0009 19.9331C11.9868 19.133 12.1334 18.3382 12.432 17.5957C12.7306 16.8533 13.1751 16.1783 13.7392 15.6107C14.3033 15.0431 14.9756 14.5945 15.7162 14.2914C16.4568 13.9883 17.2507 13.8369 18.0509 13.8461C18.9952 13.8511 19.9271 14.0616 20.7819 14.4629C21.6367 14.8642 22.3939 15.4468 23.0009 16.1701C23.608 15.4468 24.3652 14.8642 25.2199 14.4629C26.0747 14.0616 27.0066 13.8511 27.9509 13.8461C28.7511 13.8369 29.545 13.9883 30.2856 14.2914C31.0262 14.5945 31.6985 15.0431 32.2626 15.6107C32.8268 16.1783 33.2713 16.8533 33.5699 17.5957C33.8684 18.3382 34.015 19.133 34.0009 19.9331C34.0009 24.1381 30.2609 27.5141 24.6009 32.7151L23.0009 34.1541Z" fill="#FF6721"/>
</svg>
