<svg width="46" height="46" viewBox="0 0 46 46" fill="none" xmlns="http://www.w3.org/2000/svg">
<path d="M23 46C35.7025 46 46 35.7025 46 23C46 10.2975 35.7025 0 23 0C10.2975 0 0 10.2975 0 23C0 35.7025 10.2975 46 23 46Z" fill="#F6F6F6"/>
<path d="M23 34.1541L21.4 32.7151C15.735 27.5151 12 24.1381 12 19.9331C11.9859 19.133 12.1324 18.3382 12.431 17.5957C12.7296 16.8533 13.1741 16.1783 13.7382 15.6107C14.3024 15.0431 14.9746 14.5945 15.7152 14.2914C16.4559 13.9883 17.2498 13.8369 18.05 13.8461C18.9942 13.8511 19.9261 14.0616 20.7809 14.4629C21.6357 14.8642 22.3929 15.4468 23 16.1701C23.607 15.4468 24.3642 14.8642 25.219 14.4629C26.0738 14.0616 27.0057 13.8511 27.95 13.8461C28.7501 13.8369 29.544 13.9883 30.2847 14.2914C31.0253 14.5945 31.6975 15.0431 32.2617 15.6107C32.8258 16.1783 33.2703 16.8533 33.5689 17.5957C33.8675 18.3382 34.0141 19.133 34 19.9331C34 24.1381 30.26 27.5141 24.6 32.7151L23 34.1541Z" fill="#B7B7B7"/>
</svg>
