<svg xmlns="http://www.w3.org/2000/svg" width="15.535" height="15.265" viewBox="0 0 15.535 15.265"><defs><style>.a{fill:#272e47;}</style></defs><g transform="translate(-15.733 -7.499)"><path class="a" d="M2.212,1.562,2.8.921,8.179,6.345,9.4,4.993a3.162,3.162,0,0,1,.681,2.457c-.069.82.121.961.953.989a20.23,20.23,0,0,1,2.323.331l.065.341L12.3,10.179l5.451,5.43-.947.577L2.212,1.562" transform="translate(13.521 6.578)"/><path class="a" d="M67.506,9.256c.171,1.714-.588,2.915-1.926,3.047-.935.092-1.355-.4-1.121-1.323.318-1.245,1.461-1.892,3.047-1.724" transform="translate(-37.354 -0.473)"/><path class="a" d="M22.082,69.97a2.683,2.683,0,0,1-3.472,1.2c-.781-.378-.838-.917-.152-1.449.864-.671,2.257-.586,3.624.251" transform="translate(0.073 -48.888)"/><path class="a" d="M11.115,51.1c.606,1.159.981,2.284.29,3.46a1.176,1.176,0,0,1-.861.568c-.271-.029-.6-.429-.724-.739a2.6,2.6,0,0,1,1.3-3.289" transform="translate(6.81 -34.235)"/><path class="a" d="M50.573,13.014a4.226,4.226,0,0,1-.612,3.225c-.2.281-.673.667-.858.593a1.522,1.522,0,0,1-.711-.9c-.417-1.3.54-2.59,2.181-2.92" transform="translate(-24.371 -3.524)"/><path class="a" d="M60.714,29.482c-.418,1.8-1.888,2.7-3.234,2.087-.788-.358-.869-.77-.208-1.318a4.171,4.171,0,0,1,3.442-.768" transform="translate(-31.251 -16.746)"/><path class="a" d="M23.69,39.585c1.161,1.038,1.446,2.183.767,3.166-.181.263-.557.611-.78.57a1.306,1.306,0,0,1-.773-.709,2.522,2.522,0,0,1,.786-3.027" transform="translate(-3.714 -24.95)"/><path class="a" d="M34.727,57.2a2.465,2.465,0,0,1-3.038.763,1.137,1.137,0,0,1-.651-.715c-.021-.258.276-.621.53-.808.974-.718,2.2-.4,3.159.76" transform="translate(-10.456 -38.229)"/></g></svg>