<svg xmlns="http://www.w3.org/2000/svg" width="15.739" height="17" viewBox="0 0 15.739 17"><defs><style>.a{fill:#272e47;}</style></defs><g transform="translate(0 -1)"><path class="a" d="M101.246,6.329a3.6,3.6,0,0,1-.611-2.133c.017-1.259.005-2.518,0-3.777,0-.139-.016-.277-.025-.418H97.588c0,1.259-.028,2.477.008,3.694a4.836,4.836,0,0,1-.847,3,5.548,5.548,0,0,0-.954,3.19c-.022,2.12-.011,4.241-.009,6.362,0,.546.234.748.856.749q2.443,0,4.885,0c.662,0,.879-.188.88-.763,0-1.935-.025-3.87.01-5.8a6.826,6.826,0,0,0-1.172-4.1m.216,9.862H96.723V15.112h4.739Zm0-6.494H96.718a5.666,5.666,0,0,1,.659-2.352,14.457,14.457,0,0,0,1.009-2.283,7.664,7.664,0,0,0,.032-1.943h1.314c0,.249.015.483,0,.715a5.063,5.063,0,0,0,.881,3.156,4.881,4.881,0,0,1,.868,2.441c0,.078-.007.156-.013.265" transform="translate(-86.68 0.999)"/><path class="a" d="M6.526,70.265c-1.724-.018-3.448,0-5.172-.02-.353,0-.478.13-.558.446a23.011,23.011,0,0,0-.787,4.45,3.419,3.419,0,0,0,1.62,3.31,10.07,10.07,0,0,0,1.522.62c.123.052.305.175.307.269.02,1.3.014,2.594.014,3.959H1.8v.912h4.3V83.3H4.423c0-1.291.009-2.494-.006-3.7,0-.339.06-.493.446-.576a3.532,3.532,0,0,0,3-3.406A16.487,16.487,0,0,0,7,70.508c-.035-.12-.309-.241-.473-.242M.945,75.346c.066-.588.107-1.147.2-1.7.113-.686.268-1.364.4-2.047.052-.267.159-.41.48-.4,1.282.021,2.564,0,3.847.019.14,0,.381.12.4.219.259,1.279.486,2.564.734,3.912Z" transform="translate(0 -66.253)"/></g></svg>