<svg width="23" height="22" viewBox="0 0 23 22" fill="none" xmlns="http://www.w3.org/2000/svg">
<path class="heartIcon" d="M11.0009 21.1541L9.40093 19.7151C3.73593 14.5151 0.000928641 11.1381 0.000928641 6.9331C-0.0131708 6.13299 0.133409 5.33817 0.431991 4.59573C0.730572 3.85328 1.17509 3.17828 1.73921 2.6107C2.30334 2.04313 2.97561 1.59451 3.71623 1.29141C4.45684 0.988303 5.25074 0.836879 6.05093 0.8461C6.99523 0.851094 7.92712 1.06156 8.78191 1.46288C9.6367 1.86419 10.3939 2.44675 11.0009 3.1701C11.608 2.44675 12.3652 1.86419 13.2199 1.46288C14.0747 1.06156 15.0066 0.851094 15.9509 0.8461C16.7511 0.836879 17.545 0.988303 18.2856 1.29141C19.0262 1.59451 19.6985 2.04313 20.2626 2.6107C20.8268 3.17828 21.2713 3.85328 21.5699 4.59573C21.8684 5.33817 22.015 6.13299 22.0009 6.9331C22.0009 11.1381 18.2609 14.5141 12.6009 19.7151L11.0009 21.1541Z" fill="#E9EAEE"/>
</svg>
