<svg width="20" height="20" viewBox="0 0 20 20" fill="none" xmlns="http://www.w3.org/2000/svg">
<path d="M9.91675 4.82902C8.91143 4.82902 7.92868 5.12713 7.09279 5.68566C6.25689 6.24418 5.60539 7.03804 5.22067 7.96684C4.83595 8.89563 4.73529 9.91766 4.93142 10.9037C5.12755 11.8897 5.61166 12.7954 6.32253 13.5062C7.0334 14.2171 7.9391 14.7012 8.92511 14.8973C9.91111 15.0935 10.9331 14.9928 11.8619 14.6081C12.7907 14.2234 13.5846 13.5719 14.1431 12.736C14.7016 11.9001 14.9998 10.9173 14.9998 9.91202C15.0008 9.24421 14.87 8.58277 14.615 7.96559C14.3599 7.34842 13.9855 6.78765 13.5133 6.31544C13.0411 5.84323 12.4804 5.46886 11.8632 5.21379C11.246 4.95872 10.5846 4.82796 9.91675 4.82902V4.82902ZM9.91675 13.216C9.26407 13.216 8.62605 13.0225 8.08337 12.6599C7.54069 12.2973 7.11772 11.7819 6.86795 11.1789C6.61818 10.5759 6.55283 9.91236 6.68016 9.27222C6.80749 8.63208 7.12179 8.04408 7.5833 7.58257C8.04481 7.12105 8.63282 6.80676 9.27295 6.67943C9.91309 6.5521 10.5766 6.61745 11.1796 6.86722C11.7826 7.11698 12.298 7.53995 12.6606 8.08264C13.0232 8.62532 13.2168 9.26334 13.2168 9.91602C13.2141 10.7905 12.8656 11.6285 12.2474 12.2469C11.6291 12.8654 10.7912 13.2141 9.91675 13.217V13.216ZM16.3928 4.61602C16.3939 4.85075 16.3254 5.08056 16.1959 5.27634C16.0664 5.47212 15.8817 5.62507 15.6652 5.71581C15.4488 5.80656 15.2102 5.83102 14.9798 5.7861C14.7494 5.74118 14.5375 5.6289 14.371 5.46347C14.2044 5.29805 14.0907 5.08692 14.0442 4.85683C13.9978 4.62674 14.0206 4.38803 14.1099 4.17094C14.1992 3.95384 14.3509 3.76812 14.5458 3.63729C14.7407 3.50646 14.97 3.43642 15.2048 3.43602C15.3607 3.43536 15.5152 3.46554 15.6595 3.52482C15.8037 3.5841 15.9348 3.67131 16.0452 3.78144C16.1556 3.89157 16.2432 4.02244 16.3028 4.16653C16.3624 4.31062 16.393 4.46507 16.3928 4.62102V4.61602ZM19.7588 5.81602C19.7918 4.27493 19.2171 2.78274 18.1588 1.66202C17.0347 0.609847 15.5441 0.0382469 14.0048 0.0690176C12.3678 -0.0239824 7.46175 -0.0239824 5.82575 0.0690176C4.28592 0.0373452 2.79474 0.609053 1.67075 1.66202C0.614194 2.78384 0.0397322 4.27529 0.070752 5.81602C-0.023248 7.46202 -0.023248 12.362 0.068752 14C0.035685 15.5411 0.610435 17.0333 1.66875 18.154C2.79214 19.2081 4.28253 19.7822 5.82275 19.754C7.45975 19.847 12.3658 19.847 14.0018 19.754C15.5428 19.7871 17.035 19.2123 18.1558 18.154C19.2105 17.031 19.7846 15.5404 19.7558 14C19.8488 12.363 19.8488 7.46202 19.7558 5.82502L19.7588 5.81602ZM17.6448 15.756C17.4765 16.1826 17.2223 16.5701 16.8981 16.8943C16.5738 17.2186 16.1864 17.4728 15.7598 17.641C14.4548 18.159 11.3598 18.041 9.91575 18.041C8.47175 18.041 5.37275 18.156 4.07175 17.641C3.64515 17.4728 3.25769 17.2186 2.93342 16.8943C2.60916 16.5701 2.35501 16.1826 2.18675 15.756C1.66875 14.451 1.78675 11.356 1.78675 9.91202C1.78675 8.46802 1.67175 5.36902 2.18675 4.06802C2.35523 3.64151 2.60959 3.25418 2.93403 2.93008C3.25847 2.60599 3.64606 2.35205 4.07275 2.18402C5.37775 1.66602 8.47275 1.78402 9.91675 1.78402C11.3608 1.78402 14.4598 1.66902 15.7608 2.18402C16.1871 2.35227 16.5743 2.60632 16.8984 2.93041C17.2224 3.25449 17.4765 3.6417 17.6448 4.06802C18.1628 5.37302 18.0448 8.46802 18.0448 9.91202C18.0448 11.356 18.1618 14.455 17.6448 15.756Z" fill="#272E47"/>
</svg>
