<svg width="91" height="72" viewBox="0 0 91 72" fill="none" xmlns="http://www.w3.org/2000/svg">
<path fill-rule="evenodd" clip-rule="evenodd" d="M24.064 16.2421C26.1639 11.8751 29.4834 8.20962 33.6214 5.68846C37.7595 3.16729 42.539 1.89831 47.3827 2.03485C52.2264 2.17138 56.9269 3.70758 60.9163 6.45783C64.9058 9.20809 68.0135 13.0547 69.864 17.5331C69.9638 17.6366 70.058 17.7454 70.146 17.8591C70.634 18.4341 70.786 18.6291 70.851 18.7161C71.0915 19.0359 71.3125 19.3698 71.513 19.7161C71.7686 19.2818 72.0628 18.8715 72.392 18.4901C70.6483 13.2973 67.3731 8.75428 62.9975 5.45892C58.6219 2.16355 53.3511 0.270326 47.8787 0.0284218C42.4064 -0.213483 36.989 1.20729 32.3398 4.10371C27.6905 7.00013 24.0272 11.2364 21.832 16.2551H24.067L24.064 16.2421Z" fill="white"/>
<path fill-rule="evenodd" clip-rule="evenodd" d="M73.0624 29.2621L72.2054 28.5241C72.0424 28.3831 71.8904 28.2311 71.7384 28.0791C71.5014 34.3474 68.9247 40.2995 64.5164 44.762C60.1082 49.2246 54.1881 51.8739 47.9232 52.1876C41.6582 52.5014 35.5031 50.4568 30.671 46.457C25.8389 42.4572 22.6805 36.7923 21.8184 30.5791C21.155 30.4659 20.544 30.1472 20.0714 29.6681C19.9524 29.7681 19.8224 29.8681 19.6914 29.9501C20.3938 36.635 23.5538 42.8209 28.5584 47.3081C33.5631 51.7954 40.0558 54.2641 46.7775 54.2357C53.4992 54.2073 59.9708 51.6838 64.9373 47.1544C69.9039 42.6251 73.0115 36.4127 73.6574 29.7221C73.4471 29.5841 73.2466 29.4318 73.0574 29.2661" fill="white"/>
<path fill-rule="evenodd" clip-rule="evenodd" d="M83.868 22.98C84.215 21.255 85.68 19.552 86.906 19.552C87.0141 19.5392 87.1237 19.5507 87.2267 19.5857C87.3298 19.6206 87.4238 19.6781 87.5018 19.754C87.5798 19.8299 87.6398 19.9223 87.6776 20.0243C87.7153 20.1264 87.7298 20.2356 87.72 20.344C87.72 21.603 86.02 22.98 83.868 22.98ZM88.75 29.631C88.056 29.631 87.795 29.273 87.795 28.589C87.795 28.209 87.817 27.916 87.817 27.471C87.8292 26.8744 87.7101 26.2823 87.4682 25.7368C87.2262 25.1913 86.8674 24.7055 86.417 24.314V24.292C88.392 23.912 90.866 22.306 90.866 19.8C90.8648 19.4245 90.7851 19.0533 90.6319 18.7105C90.4787 18.3676 90.2554 18.0606 89.9764 17.8092C89.6974 17.5578 89.3689 17.3676 89.012 17.2508C88.6551 17.134 88.2776 17.0932 87.904 17.131C87.3697 17.1344 86.842 17.249 86.3544 17.4675C85.8669 17.6859 85.4301 18.0035 85.072 18.4H85.05L86.84 11.51H83.401L78.975 28.47H82.425L83.336 25.02C83.8139 25.1238 84.2387 25.3955 84.5333 25.7858C84.828 26.176 84.973 26.659 84.942 27.147C84.942 28.102 84.801 28.688 84.801 29.566C84.7953 29.9536 84.8723 30.3379 85.027 30.6933C85.1818 31.0486 85.4106 31.3669 85.6981 31.6267C85.9857 31.8866 86.3255 32.0821 86.6947 32.2001C87.0639 32.3181 87.454 32.3559 87.839 32.311C88.6634 32.3302 89.4701 32.0701 90.128 31.573L89.651 29.373C89.3792 29.5376 89.0687 29.6273 88.751 29.633L88.75 29.631ZM74.625 23.915C74.625 21.333 76.068 19.575 77.619 19.575C78.3219 19.6095 78.9835 19.917 79.463 20.432L80.103 17.947C79.288 17.419 78.34 17.1329 77.369 17.122C74.049 17.122 71.347 20.615 71.347 24.055C71.3029 24.6315 71.3771 25.211 71.5649 25.7578C71.7527 26.3047 72.0503 26.8073 72.4394 27.2351C72.8284 27.6628 73.3008 28.0065 73.8274 28.2452C74.354 28.4839 74.9239 28.6124 75.502 28.623C76.1612 28.635 76.8166 28.521 77.433 28.287L78.117 25.661C77.6032 25.9751 77.0034 26.1192 76.403 26.073C75.329 26.073 74.624 25.368 74.624 23.914L74.625 23.915ZM54.541 19.455H53.836L55.257 14.008H55.724C56.0067 13.9831 56.2913 14.0221 56.5568 14.1222C56.8223 14.2222 57.0619 14.3807 57.2579 14.586C57.4538 14.7912 57.601 15.0379 57.6886 15.3078C57.7763 15.5777 57.802 15.8638 57.764 16.145C57.7952 16.5802 57.734 17.017 57.5843 17.4267C57.4346 17.8365 57.1998 18.2099 56.8955 18.5225C56.5912 18.8351 56.2241 19.0797 55.8185 19.2402C55.4128 19.4008 54.9778 19.4736 54.542 19.454L54.541 19.455ZM59.576 29.87C59.4152 29.8696 59.2563 29.8359 59.1092 29.7711C58.962 29.7064 58.8298 29.612 58.7208 29.4938C58.6118 29.3757 58.5284 29.2363 58.4758 29.0844C58.4232 28.9324 58.4025 28.7713 58.415 28.611C58.415 27.667 58.534 26.604 58.534 25.475C58.5594 24.7018 58.4039 23.9333 58.0799 23.2307C57.756 22.5281 57.2725 21.9109 56.668 21.428L56.679 21.374C58.979 20.874 61.355 18.499 61.355 16.036C61.355 13.436 59.717 11.536 56.115 11.536H52.784C52.4512 12.1092 51.9676 12.5801 51.3857 12.8975C50.8038 13.2149 50.1461 13.3665 49.484 13.336L48.884 15.614C49.0749 15.6355 49.2669 15.6462 49.459 15.646C50.1426 15.6386 50.8164 15.483 51.434 15.19L47.951 28.47H51.475L53.175 21.97C53.8288 22.2299 54.3868 22.6848 54.7731 23.2729C55.1594 23.861 55.3552 24.5537 55.334 25.257C55.334 26.928 54.911 27.763 54.911 29.564C54.911 31.539 56.419 32.743 58.556 32.743C59.5146 32.7669 60.4488 32.439 61.182 31.821L60.672 29.597C60.341 29.796 59.9576 29.8905 59.572 29.868L59.576 29.87ZM17.746 25.929C17.073 25.929 16.704 25.278 16.704 24.117C16.704 22.034 17.811 19.817 19.221 19.817C19.85 19.817 20.284 20.501 20.284 21.607C20.295 23.495 19.156 25.925 17.745 25.925L17.746 25.929ZM23.832 25.817C23.6679 25.8541 23.5002 25.8722 23.332 25.871C22.952 25.871 22.779 25.697 22.768 25.383C22.7722 25.2584 22.7903 25.1346 22.822 25.014L24.829 17.322H21.461L21.161 18.483H21.135C20.9267 18.0673 20.6055 17.7187 20.2084 17.4769C19.8112 17.2352 19.3539 17.1101 18.889 17.116C15.862 17.116 13.28 20.664 13.28 24.711C13.2082 25.661 13.5108 26.6014 14.1231 27.3313C14.7355 28.0612 15.609 28.5226 16.557 28.617C17.1453 28.6229 17.7247 28.4723 18.2357 28.1806C18.7467 27.8889 19.1709 27.4667 19.465 26.957H19.487C19.5882 27.441 19.8548 27.8745 20.2409 28.1833C20.6271 28.492 21.1087 28.6567 21.603 28.649C22.1607 28.6843 22.7162 28.552 23.198 28.269L23.832 25.817ZM37.785 25.925C37.112 25.925 36.743 25.274 36.743 24.113C36.743 22.03 37.85 19.813 39.271 19.813C39.889 19.813 40.334 20.497 40.334 21.603C40.323 23.491 39.184 25.921 37.784 25.921L37.785 25.925ZM42.927 11.513L41.158 18.261H41.136C40.8982 17.8916 40.5677 17.591 40.1775 17.3892C39.7872 17.1874 39.3509 17.0915 38.912 17.111C35.885 17.111 33.303 20.659 33.303 24.706C33.2312 25.656 33.5338 26.5964 34.1461 27.3263C34.7585 28.0562 35.632 28.5176 36.58 28.612C37.1365 28.6069 37.6832 28.4646 38.1716 28.1978C38.6601 27.9309 39.0751 27.5476 39.38 27.082H39.402L39.055 28.471H41.963L46.39 11.524H42.929L42.927 11.513ZM64.527 26.013C63.92 26.013 63.442 25.297 63.442 24.049C63.442 21.814 64.505 19.59 65.916 19.59C66.643 19.59 67.033 20.469 67.033 21.59C67.033 23.554 65.861 26.017 64.527 26.017V26.013ZM66.187 17.117C62.726 17.117 60.155 20.404 60.155 24.202C60.1143 24.7558 60.1858 25.3121 60.3651 25.8376C60.5444 26.363 60.828 26.847 61.1987 27.2603C61.5695 27.6736 62.0199 28.0079 62.5228 28.2431C63.0258 28.4783 63.5711 28.6095 64.126 28.629C67.674 28.629 70.299 25.374 70.299 21.783C70.299 18.875 68.599 17.118 66.187 17.118V17.117ZM28.187 28.467L29.565 23.216C29.934 21.795 30.802 20.265 32.136 20.265C32.4876 20.2645 32.8328 20.358 33.136 20.536L33.993 17.292C33.7533 17.1894 33.4948 17.1376 33.234 17.14C32.6965 17.2121 32.1829 17.4072 31.7331 17.7102C31.2834 18.0132 30.9096 18.4159 30.641 18.887H30.608L30.999 17.325H27.645L24.737 28.468L28.187 28.467ZM14.657 11.52L10.23 28.467H6.716L8.691 20.981H5.475L3.522 28.467H0L3.483 15.154C2.86534 15.4469 2.19155 15.6025 1.508 15.61C1.31588 15.6105 1.12388 15.5998 0.932999 15.578L1.533 13.299C2.19509 13.3295 2.85285 13.1778 3.43471 12.8605C4.01656 12.5431 4.50021 12.0722 4.833 11.499H7.958L6.233 18.182H9.433L11.158 11.52H14.657Z" fill="white"/>
<path d="M38.7443 43.2773C38.3204 43.3249 37.8913 43.2772 37.4882 43.1377C37.0851 42.9981 36.7183 42.7703 36.4146 42.4707C36.111 42.1712 35.8781 41.8075 35.733 41.4064C35.588 41.0052 35.5345 40.5767 35.5763 40.1523C35.5472 39.6893 35.6182 39.2255 35.7846 38.7924C35.951 38.3594 36.2087 37.9673 36.5403 37.6429C36.872 37.3185 37.2696 37.0694 37.7062 36.9126C38.1428 36.7558 38.6081 36.695 39.0703 36.7343C39.5056 36.7363 39.9392 36.791 40.3613 36.8973L40.2313 38.2753C39.8284 38.1428 39.4074 38.0733 38.9833 38.0693C37.8983 38.0693 37.2833 38.8503 37.2833 40.0113C37.2505 40.2565 37.2732 40.506 37.3497 40.7413C37.4262 40.9767 37.5546 41.1918 37.7253 41.3709C37.8961 41.55 38.1048 41.6885 38.3362 41.7761C38.5676 41.8637 38.8158 41.8983 39.0623 41.8773C39.4819 41.8847 39.8976 41.7958 40.2773 41.6173L40.4073 43.0063C39.8721 43.1849 39.3116 43.2764 38.7473 43.2773" fill="white"/>
<path d="M44.4405 39.4279C44.3315 39.1349 44.2125 38.7659 44.1405 38.4839H44.1295C44.0535 38.7659 43.9555 39.0919 43.8475 39.3839L43.2835 40.925H44.9975L44.4405 39.4279ZM45.7645 43.1819L45.3735 42.075H42.9215L42.5215 43.1819H40.9375L43.2915 36.835H45.1575L47.5015 43.1819H45.7645Z" fill="white"/>
<path d="M49.9089 38.0599V39.4389H52.0569V40.6539H49.9089V43.1819H48.3359V36.8389H52.1879V38.0649L49.9089 38.0599Z" fill="white"/>
<path d="M53.3809 43.1809V36.8389H57.2869V38.0649H54.9539V39.3339H57.1779V40.5339H54.9539V41.9229H57.2869V43.1819L53.3809 43.1809Z" fill="white"/>
<path d="M77.0946 33.5282V32.6612C77.1826 32.6423 77.2727 32.6353 77.3626 32.6402C77.7136 32.6402 77.9406 32.7852 77.9406 33.0742C77.9388 33.1433 77.9225 33.2111 77.8928 33.2735C77.8631 33.3358 77.8205 33.3911 77.768 33.4359C77.7155 33.4807 77.6541 33.514 77.5879 33.5335C77.5216 33.553 77.452 33.5584 77.3836 33.5492C77.2882 33.5327 77.1914 33.5257 77.0946 33.5282V33.5282ZM77.7346 34.0442C77.6526 33.9442 77.5696 33.8372 77.5076 33.7762C77.6114 33.7849 77.7158 33.7722 77.8145 33.7389C77.9132 33.7056 78.004 33.6525 78.0814 33.5828C78.1588 33.5131 78.2211 33.4283 78.2645 33.3336C78.3078 33.2389 78.3314 33.1364 78.3336 33.0322C78.3336 32.5982 78.0036 32.3712 77.4246 32.3712C77.191 32.3652 76.9574 32.3722 76.7246 32.3923V34.9733H77.1166V33.7982H77.1376L78.0466 34.9542H78.5216L77.7346 34.0442Z" fill="white"/>
<path d="M77.5097 35.7389C76.9583 35.7224 76.4354 35.4905 76.0531 35.0928C75.6707 34.6951 75.4595 34.1635 75.4647 33.6119C75.4633 33.342 75.515 33.0744 75.6171 32.8245C75.7191 32.5746 75.8693 32.3473 76.0593 32.1555C76.2492 31.9637 76.4751 31.8113 76.7239 31.7068C76.9728 31.6024 77.2398 31.548 77.5097 31.5469C78.0432 31.5798 78.5441 31.815 78.9102 32.2045C79.2763 32.5939 79.4802 33.1083 79.4802 33.6428C79.4802 34.1774 79.2763 34.6918 78.9102 35.0813C78.5441 35.4707 78.0432 35.7059 77.5097 35.7389ZM77.5097 31.2579C76.8732 31.2579 76.2628 31.5107 75.8127 31.9608C75.3626 32.4109 75.1097 33.0213 75.1097 33.6579C75.1042 33.9746 75.1624 34.2891 75.2811 34.5828C75.3997 34.8765 75.5763 35.1433 75.8003 35.3673C76.0243 35.5912 76.2911 35.7679 76.5848 35.8865C76.8785 36.0051 77.193 36.0634 77.5097 36.0579C78.1443 36.0516 78.7511 35.7968 79.1999 35.348C79.6486 34.8993 79.9035 34.2924 79.9097 33.6579C79.9119 33.3421 79.8512 33.029 79.7314 32.7369C79.6115 32.4448 79.4348 32.1793 79.2115 31.956C78.9883 31.7328 78.7228 31.5561 78.4307 31.4362C78.1385 31.3164 77.8255 31.2557 77.5097 31.2579" fill="white"/>
<path d="M29.5037 69.8721V62.5993H30.3844V69.0908H33.7651V69.8721H29.5037ZM36.0094 62.5993V69.8721H35.1287V62.5993H36.0094ZM41.7525 64.4175C41.7099 64.0577 41.5371 63.7783 41.234 63.5795C40.931 63.3806 40.5593 63.2812 40.119 63.2812C39.797 63.2812 39.5153 63.3332 39.2738 63.4374C39.0347 63.5416 38.8477 63.6848 38.7127 63.8671C38.5801 64.0494 38.5138 64.2565 38.5138 64.4885C38.5138 64.6827 38.56 64.8496 38.6523 64.9893C38.747 65.1266 38.8678 65.2414 39.0146 65.3337C39.1613 65.4237 39.3152 65.4983 39.4762 65.5574C39.6372 65.6143 39.7852 65.6604 39.9201 65.6959L40.6587 65.8948C40.8481 65.9445 41.0588 66.0132 41.2908 66.1008C41.5252 66.1884 41.7489 66.3079 41.962 66.4594C42.1774 66.6086 42.355 66.8003 42.4947 67.0347C42.6344 67.2691 42.7042 67.5567 42.7042 67.8976C42.7042 68.2906 42.6012 68.6457 42.3952 68.963C42.1916 69.2802 41.8933 69.5323 41.5004 69.7194C41.1097 69.9064 40.6351 69.9999 40.0763 69.9999C39.5555 69.9999 39.1045 69.9159 38.7234 69.7478C38.3446 69.5797 38.0463 69.3453 37.8285 69.0447C37.613 68.744 37.4911 68.3948 37.4627 67.9971H38.3718C38.3955 68.2717 38.4878 68.499 38.6488 68.6789C38.8121 68.8564 39.0181 68.989 39.2667 69.0766C39.5176 69.1618 39.7875 69.2045 40.0763 69.2045C40.4125 69.2045 40.7144 69.15 40.9819 69.0411C41.2494 68.9298 41.4613 68.776 41.6175 68.5795C41.7738 68.3806 41.8519 68.1486 41.8519 67.8834C41.8519 67.642 41.7844 67.4455 41.6495 67.2939C41.5146 67.1424 41.337 67.0193 41.1168 66.9246C40.8967 66.8299 40.6587 66.7471 40.4031 66.676L39.5082 66.4204C38.94 66.257 38.4902 66.0238 38.1587 65.7208C37.8273 65.4178 37.6616 65.0212 37.6616 64.5312C37.6616 64.124 37.7717 63.7689 37.9918 63.4658C38.2144 63.1604 38.5127 62.9237 38.8867 62.7556C39.2631 62.5851 39.6834 62.4999 40.1474 62.4999C40.6161 62.4999 41.0328 62.584 41.3974 62.752C41.762 62.9178 42.0508 63.145 42.2638 63.4339C42.4793 63.7227 42.5929 64.0506 42.6048 64.4175H41.7525ZM44.1522 69.8721V62.5993H46.6948C47.2014 62.5993 47.6193 62.6869 47.9483 62.8621C48.2774 63.0349 48.5224 63.2681 48.6834 63.5617C48.8444 63.8529 48.9249 64.176 48.9249 64.5312C48.9249 64.8437 48.8693 65.1017 48.758 65.3053C48.6491 65.5089 48.5047 65.6699 48.3248 65.7883C48.1472 65.9066 47.9542 65.9942 47.7459 66.051V66.1221C47.9685 66.1363 48.1922 66.2144 48.4171 66.3564C48.642 66.4985 48.8302 66.7021 48.9817 66.9672C49.1332 67.2324 49.209 67.5567 49.209 67.9403C49.209 68.3048 49.1261 68.6327 48.9604 68.9239C48.7947 69.2151 48.5331 69.4459 48.1756 69.6164C47.8181 69.7868 47.3529 69.8721 46.78 69.8721H44.1522ZM45.0328 69.0908H46.78C47.3553 69.0908 47.7637 68.9796 48.0051 68.757C48.249 68.5321 48.3709 68.2599 48.3709 67.9403C48.3709 67.694 48.3082 67.4668 48.1827 67.2584C48.0572 67.0477 47.8785 66.8796 47.6465 66.7542C47.4145 66.6263 47.1399 66.5624 46.8226 66.5624H45.0328V69.0908ZM45.0328 65.7954H46.6664C46.9315 65.7954 47.1706 65.7433 47.3837 65.6391C47.5991 65.5349 47.7696 65.3882 47.8951 65.1988C48.0229 65.0094 48.0868 64.7868 48.0868 64.5312C48.0868 64.2116 47.9756 63.9405 47.753 63.718C47.5305 63.493 47.1777 63.3806 46.6948 63.3806H45.0328V65.7954ZM56.7924 66.2357C56.7924 67.0028 56.6539 67.6656 56.377 68.2243C56.1 68.7831 55.72 69.2139 55.237 69.517C54.7541 69.82 54.2025 69.9715 53.5822 69.9715C52.9619 69.9715 52.4103 69.82 51.9274 69.517C51.4444 69.2139 51.0645 68.7831 50.7875 68.2243C50.5105 67.6656 50.372 67.0028 50.372 66.2357C50.372 65.4687 50.5105 64.8058 50.7875 64.2471C51.0645 63.6884 51.4444 63.2575 51.9274 62.9545C52.4103 62.6514 52.9619 62.4999 53.5822 62.4999C54.2025 62.4999 54.7541 62.6514 55.237 62.9545C55.72 63.2575 56.1 63.6884 56.377 64.2471C56.6539 64.8058 56.7924 65.4687 56.7924 66.2357ZM55.9402 66.2357C55.9402 65.606 55.8348 65.0745 55.6241 64.6412C55.4158 64.208 55.1329 63.8801 54.7754 63.6576C54.4203 63.435 54.0225 63.3238 53.5822 63.3238C53.1419 63.3238 52.743 63.435 52.3855 63.6576C52.0304 63.8801 51.7475 64.208 51.5368 64.6412C51.3284 65.0745 51.2243 65.606 51.2243 66.2357C51.2243 66.8654 51.3284 67.3969 51.5368 67.8302C51.7475 68.2634 52.0304 68.5913 52.3855 68.8138C52.743 69.0364 53.1419 69.1476 53.5822 69.1476C54.0225 69.1476 54.4203 69.0364 54.7754 68.8138C55.1329 68.5913 55.4158 68.2634 55.6241 67.8302C55.8348 67.3969 55.9402 66.8654 55.9402 66.2357ZM64.0403 62.5993V69.8721H63.188L59.225 64.1618H59.1539V69.8721H58.2733V62.5993H59.1255L63.1028 68.3238H63.1738V62.5993H64.0403Z" fill="white"/>
</svg>
