<svg xmlns="http://www.w3.org/2000/svg" width="93" height="77.872" viewBox="0 0 93 77.872"><defs><style>.a,.b,.c{fill:#333;}.a{fill-rule:evenodd;}.c{font-size:10px;font-family:SFProDisplay-Bold, SF Pro Display;font-weight:700;}</style></defs><g transform="translate(-205.301 -646.223)"><g transform="translate(205.301 646.223)"><path class="a" d="M197.591,194.175a25.09,25.09,0,0,1,45.8,1.291,4,4,0,0,1,.282.326c.488.575.64.77.705.857a10.031,10.031,0,0,1,.662,1,8.382,8.382,0,0,1,.879-1.226,27.122,27.122,0,0,0-50.56-2.235h2.235Z" transform="translate(-173.526 -177.933)"/><path class="a" d="M237.012,332.995l-.857-.738c-.163-.141-.315-.293-.467-.445a25.088,25.088,0,0,1-49.92,2.5,3.213,3.213,0,0,1-1.747-.911c-.119.1-.249.2-.38.282a27.12,27.12,0,0,0,53.966-.228,5.446,5.446,0,0,1-.6-.456" transform="translate(-163.95 -303.733)"/><path class="a" d="M159.593,252.438c.347-1.725,1.812-3.428,3.038-3.428a.731.731,0,0,1,.814.792c0,1.259-1.7,2.636-3.852,2.636m4.882,6.651c-.694,0-.955-.358-.955-1.042,0-.38.022-.673.022-1.118a4.073,4.073,0,0,0-1.4-3.157v-.022c1.975-.38,4.449-1.986,4.449-4.492a2.691,2.691,0,0,0-2.962-2.669,3.849,3.849,0,0,0-2.832,1.269h-.022l1.79-6.89h-3.439L154.7,257.928h3.45l.911-3.45a2.044,2.044,0,0,1,1.606,2.127c0,.955-.141,1.541-.141,2.419a2.723,2.723,0,0,0,3.038,2.745,3.656,3.656,0,0,0,2.289-.738l-.477-2.2a1.8,1.8,0,0,1-.9.26m-14.126-5.718c0-2.582,1.443-4.34,2.994-4.34a2.7,2.7,0,0,1,1.844.857l.64-2.485a5.134,5.134,0,0,0-2.734-.825c-3.32,0-6.022,3.493-6.022,6.933a4.245,4.245,0,0,0,4.155,4.568,5.176,5.176,0,0,0,1.931-.336l.684-2.626a2.865,2.865,0,0,1-1.714.412c-1.074,0-1.779-.705-1.779-2.159m-20.083-4.459h-.705l1.421-5.447h.467a1.891,1.891,0,0,1,2.04,2.137,3.091,3.091,0,0,1-3.222,3.309m5.034,10.416a1.168,1.168,0,0,1-1.161-1.259c0-.944.119-2.007.119-3.136a4.971,4.971,0,0,0-1.866-4.047l.011-.054c2.3-.5,4.676-2.875,4.676-5.338,0-2.6-1.638-4.5-5.24-4.5h-3.331a3.623,3.623,0,0,1-3.3,1.8l-.6,2.278a5.1,5.1,0,0,0,.575.032,4.729,4.729,0,0,0,1.975-.456l-3.483,13.28H127.2l1.7-6.5a3.426,3.426,0,0,1,2.159,3.287c0,1.671-.423,2.506-.423,4.307,0,1.975,1.508,3.179,3.645,3.179a3.923,3.923,0,0,0,2.626-.922l-.51-2.224a1.918,1.918,0,0,1-1.1.271m-41.826-3.939c-.673,0-1.042-.651-1.042-1.812,0-2.083,1.107-4.3,2.517-4.3.629,0,1.063.684,1.063,1.79.011,1.888-1.128,4.318-2.539,4.318m6.087-.108a2.2,2.2,0,0,1-.5.054c-.38,0-.553-.174-.564-.488a1.675,1.675,0,0,1,.054-.369l2.007-7.692H97.186l-.3,1.161H96.86a2.477,2.477,0,0,0-2.246-1.367c-3.027,0-5.609,3.548-5.609,7.595a3.649,3.649,0,0,0,3.277,3.906,3.319,3.319,0,0,0,2.908-1.66h.022a2.128,2.128,0,0,0,2.116,1.692,2.8,2.8,0,0,0,1.595-.38Zm13.953.108c-.673,0-1.042-.651-1.042-1.812,0-2.083,1.107-4.3,2.528-4.3.618,0,1.063.684,1.063,1.79-.011,1.888-1.15,4.318-2.55,4.318m5.143-14.408-1.769,6.748h-.022a2.512,2.512,0,0,0-2.224-1.15c-3.027,0-5.609,3.548-5.609,7.595a3.649,3.649,0,0,0,3.277,3.906,3.384,3.384,0,0,0,2.8-1.53h.022l-.347,1.389h2.908l4.427-16.947h-3.461Zm21.6,14.5c-.607,0-1.085-.716-1.085-1.964,0-2.235,1.063-4.459,2.474-4.459.727,0,1.117.879,1.117,2,0,1.964-1.172,4.427-2.506,4.427m1.66-8.9c-3.461,0-6.032,3.287-6.032,7.085a4.127,4.127,0,0,0,3.971,4.427c3.548,0,6.173-3.255,6.173-6.846,0-2.908-1.7-4.665-4.112-4.665m-38,11.349,1.378-5.251c.369-1.421,1.237-2.951,2.571-2.951a1.969,1.969,0,0,1,1,.271l.857-3.244a1.884,1.884,0,0,0-.759-.152,3.524,3.524,0,0,0-2.593,1.747h-.033l.391-1.562H103.37l-2.908,11.143Zm-13.53-16.947-4.427,16.947H82.441l1.975-7.486H81.2l-1.953,7.486H75.725l3.483-13.313a4.731,4.731,0,0,1-1.975.456,4.964,4.964,0,0,1-.575-.032l.6-2.279a3.623,3.623,0,0,0,3.3-1.8h3.125l-1.725,6.683h3.2l1.725-6.662Z" transform="translate(-75.725 -229.458)"/><path class="b" d="M273.858,385.8a2.862,2.862,0,0,1-3.168-3.125,3.227,3.227,0,0,1,3.494-3.418,5.392,5.392,0,0,1,1.291.163l-.13,1.378a4.121,4.121,0,0,0-1.248-.206c-1.085,0-1.7.781-1.7,1.942a1.653,1.653,0,0,0,1.779,1.866,2.741,2.741,0,0,0,1.215-.26l.13,1.389a5.266,5.266,0,0,1-1.66.271" transform="translate(-235.114 -342.523)"/><path class="b" d="M303.567,382.388c-.109-.293-.228-.662-.3-.944h-.011c-.076.282-.174.608-.282.9l-.564,1.541h1.714Zm1.324,3.754-.391-1.107h-2.452l-.4,1.107h-1.584l2.354-6.347h1.866l2.344,6.347Z" transform="translate(-259.126 -342.96)"/><path class="b" d="M342.187,381.021V382.4h2.148v1.215h-2.148v2.528h-1.573V379.8h3.852v1.226Z" transform="translate(-292.278 -342.961)"/><path class="b" d="M368.262,386.142V379.8h3.906v1.226h-2.333v1.269h2.224v1.2h-2.224v1.389h2.333v1.259Z" transform="translate(-314.881 -342.961)"/><path class="b" d="M496.557,356.5v-.867a1.01,1.01,0,0,1,.268-.021c.351,0,.578.145.578.434a.492.492,0,0,1-.557.475,1.466,1.466,0,0,0-.289-.021m.64.516c-.082-.1-.165-.207-.227-.268a.763.763,0,0,0,.826-.744c0-.434-.33-.661-.909-.661a6.272,6.272,0,0,0-.7.021v2.581h.392V356.77h.021l.909,1.156h.475Z" transform="translate(-419.462 -322.972)"/><path class="b" d="M489.754,353.715a2.108,2.108,0,0,1-2.045-2.127,2.054,2.054,0,0,1,2.045-2.065,2.1,2.1,0,0,1,0,4.192m0-4.481a2.4,2.4,0,0,0-2.4,2.4,2.359,2.359,0,0,0,2.4,2.4,2.424,2.424,0,0,0,2.4-2.4,2.384,2.384,0,0,0-2.4-2.4" transform="translate(-412.245 -317.976)"/></g><text class="c" transform="translate(205.301 706.095)"><tspan x="28.623" y="10">LISBON</tspan></text></g></svg>
