<svg xmlns="http://www.w3.org/2000/svg" width="22.771" height="35.271" viewBox="0 0 22.771 35.271"><defs><style>.a{fill:#fff;}</style></defs><path class="a" d="M1213.289,224.559a1.928,1.928,0,1,0-2.725,2.728c5.469,5.469,7.9,7.905,12.238,12.253a1.928,1.928,0,0,0,2.725-2.728Z" transform="translate(-1013.986 716.09) rotate(-45)"/><path class="a" d="M1213.289,224.559a1.928,1.928,0,1,0-2.725,2.728c5.469,5.469,2.239,2.249,6.581,6.6a1.928,1.928,0,0,0,2.725-2.728Z" transform="translate(-1013.986 725.09) rotate(-45)"/><path class="a" d="M1213.289,224.559a1.928,1.928,0,1,0-2.725,2.728c5.469,5.469,5.775,5.784,10.117,10.132a1.928,1.928,0,0,0,2.725-2.728Z" transform="translate(-1013.986 707.09) rotate(-45)"/></svg>