<svg width="33" height="19" viewBox="0 0 33 19" fill="none" xmlns="http://www.w3.org/2000/svg">
<path d="M1 1.5H2.5C2.5 4.83333 3.1 11.5 5.5 11.5C7.9 11.5 9.83333 11.5 10.5 11.5" stroke="#272E47" stroke-width="1.5" stroke-linecap="round"/>
<path d="M3.5 17.5L4.5 11.5H9L10.5 17.5" stroke="#272E47" stroke-width="1.5" stroke-linecap="round"/>
<path d="M32 1.5H30.5C30.5 4.83333 29.9 11.5 27.5 11.5C25.1 11.5 23.1667 11.5 22.5 11.5" stroke="#272E47" stroke-width="1.5" stroke-linecap="round"/>
<path d="M29.5 17.5L28.5 11.5H24L22.5 17.5" stroke="#272E47" stroke-width="1.5" stroke-linecap="round"/>
<path d="M14.5 17.5H16.5M18.5 17.5H16.5M16.5 17.5V5.5H10.5M10.5 5.5H23.5M10.5 5.5H9.5" stroke="#272E47" stroke-width="1.5" stroke-linecap="round"/>
</svg>
