<svg width="17" height="17" viewBox="0 0 17 17" fill="none" xmlns="http://www.w3.org/2000/svg">
<path class="searchIcon" d="M13.3723 7.80433C13.3723 8.90557 13.0458 9.98209 12.434 10.8977C11.8221 11.8134 10.9525 12.5271 9.93511 12.9485C8.91769 13.3699 7.79815 13.4802 6.71807 13.2653C5.63798 13.0505 4.64586 12.5202 3.86716 11.7415C3.08846 10.9628 2.55816 9.97068 2.34332 8.89059C2.12848 7.8105 2.23874 6.69097 2.66017 5.67355C3.0816 4.65613 3.79526 3.78653 4.71092 3.17471C5.62657 2.56289 6.70308 2.23633 7.80433 2.23633C9.28106 2.23633 10.6973 2.82295 11.7415 3.86716C12.7857 4.91136 13.3723 6.3276 13.3723 7.80433Z" stroke="#E9EAEE" stroke-width="3" stroke-linecap="round" stroke-linejoin="round"/>
<path class="searchIcon" d="M14.7604 14.7614L11.7324 11.7334" stroke="#E9EAEE" stroke-width="3" stroke-linecap="round" stroke-linejoin="round"/>
</svg>
