<svg xmlns="http://www.w3.org/2000/svg" width="17.384" height="16.704" viewBox="0 0 17.384 16.704"><defs><style>.a{fill:#272e47;}</style></defs><g transform="translate(-20 -10)"><path class="a" d="M19.787,15.859l-2.318-2.31,1.725-.719a.4.4,0,0,0,.244-.365V8.609a.388.388,0,0,0-.015-.1l-.007-.023a.4.4,0,0,0-.039-.084l0-.009a.4.4,0,0,0-.066-.076L19.287,8.3a.39.39,0,0,0-.084-.052l0,0h0L15.5,6.637v-3.6a.39.39,0,0,0-.015-.1c0-.008,0-.015-.007-.023a.4.4,0,0,0-.039-.084l0-.009a.4.4,0,0,0-.066-.076l-.019-.015a.393.393,0,0,0-.084-.052l0,0h0L11.322.96a.4.4,0,0,0-.31,0L6.9,2.67a.381.381,0,0,0-.089.054l-.019.016a.4.4,0,0,0-.068.075h0c0,.005,0,.012-.008.017L4.022.144a.495.495,0,0,0-.7.7L19.089,16.56a.495.495,0,0,0,.7-.7M18.646,12.2l-1.784.743-1.535-1.53v-.829L18.646,9.2Zm-4.11-1.576-.079-.079.079.034Zm3.5-2.024-3.1,1.29-2.014-.875-.553-.551L15.1,7.327ZM14.707,6.627l-2.95,1.229-.369-.368V5.011l3.319-1.383ZM11.161,1.753l2.932,1.275L11,4.317,8.065,3.043ZM10.6,5.007V6.7l-3.011-3Z" transform="translate(17.451 10)"/><path class="a" d="M8.84,37.327V36.034l-.792-.789v2.077L4.73,38.7v-3L7.4,34.6l-.607-.6L4.338,35.013,1.406,33.738l3.1-1.29,1.313.571-1.706-1.7v.435L.244,33.365a.387.387,0,0,0-.089.054l-.019.016a.4.4,0,0,0-.068.075h0a.393.393,0,0,0-.044.091l-.008.024a.391.391,0,0,0-.015.1.055.055,0,0,0,0,.006H0v3.858a.4.4,0,0,0,.238.363l3.939,1.713a.4.4,0,0,0,.158.033.391.391,0,0,0,.152-.031l3.954-1.648,3.784,1.645a.376.376,0,0,0,.269.015l-1.354-1.35ZM3.939,38.7.792,37.327V34.334L3.939,35.7Z" transform="translate(20 -15.121)"/></g></svg>