<svg width="21" height="18" viewBox="0 0 21 18" fill="none" xmlns="http://www.w3.org/2000/svg">
<path d="M20.9729 2.01799C20.1877 2.36611 19.3548 2.59465 18.5019 2.69599C19.4006 2.15816 20.073 1.31192 20.3939 0.31499C19.5494 0.816174 18.6254 1.16926 17.6619 1.35899C17.013 0.669707 16.1552 0.213395 15.2209 0.0606172C14.2867 -0.0921606 13.3282 0.0671069 12.4935 0.513791C11.6589 0.960475 10.9947 1.66969 10.6036 2.53177C10.2125 3.39385 10.1163 4.36076 10.3299 5.28299C8.61868 5.19684 6.94471 4.75166 5.41674 3.97639C3.88877 3.20113 2.54097 2.1131 1.46091 0.78299C0.910558 1.73038 0.741953 2.85189 0.989417 3.91922C1.23688 4.98655 1.88181 5.91945 2.79291 6.52799C2.10963 6.50669 1.44136 6.32222 0.843906 5.98999C0.843906 6.00799 0.843906 6.02599 0.843906 6.04399C0.844244 7.03751 1.18813 8.00035 1.81728 8.76929C2.44643 9.53823 3.32212 10.0659 4.29591 10.263C3.66233 10.4353 2.99775 10.4606 2.35291 10.337C2.62774 11.1918 3.16288 11.9394 3.88348 12.4752C4.60409 13.0109 5.47412 13.308 6.37191 13.325C4.84882 14.5223 2.96726 15.1725 1.02991 15.171C0.687025 15.1712 0.344431 15.1511 0.00390625 15.111C1.97252 16.376 4.26389 17.0471 6.60391 17.044C8.21404 17.0541 9.81015 16.7443 11.2996 16.1326C12.789 15.5208 14.1421 14.6194 15.2804 13.4805C16.4186 12.3416 17.3193 10.988 17.9302 9.49819C18.541 8.0084 18.8499 6.41212 18.8389 4.80199C18.8389 4.61532 18.8349 4.42966 18.8269 4.24499C19.6693 3.6362 20.3963 2.88206 20.9739 2.01799H20.9729Z" fill="#272E47"/>
</svg>
