<svg xmlns="http://www.w3.org/2000/svg" width="17.01" height="14.877" viewBox="0 0 17.01 14.877"><defs><style>.a{fill:#1b2337;}</style></defs><path class="a" d="M15.539,1.178c-.06-.06-.12-.11-.18-.17a4.544,4.544,0,0,0-6.2.46l-.66.67-.65-.67a4.544,4.544,0,0,0-6.2-.46,4.778,4.778,0,0,0-.49,6.73c.05.06.11.12.16.18l6.43,6.64a1.041,1.041,0,0,0,1.47.03.138.138,0,0,0,.04-.03l6.43-6.64a4.769,4.769,0,0,0-.15-6.74m-6.45,9.47v.91H7.909v-.9c-.1,0-.21-.01-.32-.02a2.355,2.355,0,0,1-2.03-2.62c0-3.06,2.95-4.7,2.95-4.7s2.94,1.64,2.94,4.7c.01.11.02.22.02.34a2.329,2.329,0,0,1-2.38,2.29" transform="translate(0 0)"/></svg>