<svg xmlns="http://www.w3.org/2000/svg" width="14.922" height="13.267" viewBox="0 0 14.922 13.267"><defs><style>.a{fill:#272e47;}</style></defs><path class="a" d="M14.154.25A.4.4,0,0,0,13.42.219,4.443,4.443,0,0,1,9.537,2.486H7.464A4.976,4.976,0,0,0,2.49,7.461a5.123,5.123,0,0,0,.039.531A12.4,12.4,0,0,1,9.951,5.8a.415.415,0,0,1,0,.829c-6.513,0-9.275,3.993-9.887,5.493a.83.83,0,0,0,1.536.63,6.816,6.816,0,0,1,1.863-2.347,4.963,4.963,0,0,0,4.531,2c4.068-.3,6.931-3.943,6.931-8.41A9.421,9.421,0,0,0,14.154.25Z" transform="translate(-0.004 0.002)"/></svg>