<svg width="18" height="18" viewBox="0 0 18 18" fill="none" xmlns="http://www.w3.org/2000/svg">
<path d="M9.117 6.63535e-05C6.79431 -0.00870305 4.56324 0.905444 2.91447 2.54146C1.26571 4.17747 0.334265 6.40138 0.325 8.72407C0.32305 10.3133 0.759749 11.8722 1.587 13.2291L0 17.9101L4.868 16.3641C6.20303 17.0963 7.70512 17.47 9.22764 17.4485C10.7502 17.427 12.2411 17.0111 13.5549 16.2415C14.8688 15.4718 15.9606 14.3747 16.7239 13.0572C17.4872 11.7396 17.8959 10.2467 17.91 8.72407C17.9007 6.4012 16.9692 4.17715 15.3202 2.5411C13.6712 0.905061 11.4399 -0.0089689 9.117 6.63535e-05V6.63535e-05ZM13.49 12.0381C13.3154 12.3045 13.0868 12.5312 12.8189 12.7035C12.551 12.8757 12.2498 12.9897 11.935 13.0381C11.523 13.0601 11.511 13.3581 9.263 12.3811C7.72147 11.5881 6.43616 10.3745 5.556 8.88107C5.05645 8.20015 4.76785 7.38754 4.726 6.54407C4.73323 6.19651 4.81312 5.85431 4.96055 5.53948C5.10797 5.22465 5.31966 4.94417 5.582 4.71607C5.66166 4.6354 5.75646 4.57127 5.86097 4.52733C5.96548 4.4834 6.07763 4.46054 6.191 4.46007C6.368 4.46007 6.483 4.45507 6.614 4.46007C6.745 4.46507 6.941 4.43307 7.114 4.88507C7.287 5.33707 7.689 6.45007 7.741 6.56007C7.77382 6.62 7.79103 6.68723 7.79103 6.75557C7.79103 6.8239 7.77382 6.89113 7.741 6.95107C7.67936 7.08278 7.59921 7.20502 7.503 7.31407C7.386 7.44007 7.256 7.59607 7.152 7.69207C7.048 7.78807 6.913 7.91507 7.036 8.14307C7.35222 8.72873 7.75359 9.26423 8.227 9.73207C8.74231 10.2219 9.33886 10.6185 9.99 10.9041C10.21 11.0241 10.342 11.0111 10.479 10.8671C10.616 10.7231 11.064 10.2381 11.222 10.0211C11.38 9.80407 11.528 9.84607 11.731 9.92807C11.934 10.0101 13.017 10.5901 13.237 10.7101C13.457 10.8301 13.605 10.8911 13.657 10.9861C13.7059 11.3455 13.6478 11.7114 13.49 12.0381V12.0381Z" fill="#25CFA1"/>
</svg>
