<svg width="24" height="17" viewBox="0 0 24 17" fill="none" xmlns="http://www.w3.org/2000/svg">
<path d="M22.6976 2.55C22.5667 2.05721 22.3088 1.60742 21.9496 1.24557C21.5903 0.883717 21.1424 0.622491 20.6506 0.488C18.8396 -8.9407e-08 11.5906 0 11.5906 0C11.5906 0 4.34163 -8.9407e-08 2.53363 0.488C2.04144 0.622186 1.59312 0.883277 1.23353 1.24515C0.873946 1.60702 0.615697 2.05697 0.484626 2.55C0.150594 4.40309 -0.0114283 6.28309 0.000626138 8.166C-0.0114283 10.0489 0.150594 11.9289 0.484626 13.782C0.616518 14.2711 0.875582 14.7166 1.23548 15.0732C1.59538 15.4298 2.04327 15.6847 2.53363 15.812C4.34163 16.3 11.5906 16.3 11.5906 16.3C11.5906 16.3 18.8396 16.3 20.6476 15.812C21.138 15.6847 21.5859 15.4298 21.9458 15.0732C22.3057 14.7166 22.5647 14.2711 22.6966 13.782C23.0307 11.9289 23.1927 10.0489 23.1806 8.166C23.1927 6.28309 23.0307 4.40309 22.6966 2.55H22.6976ZM9.22063 11.613V4.719L15.2796 8.166L9.22063 11.613Z" fill="#272E47"/>
</svg>
